<mxfile host="app.diagrams.net" modified="2023-10-24T15:46:49.364Z" agent="Mozilla/5.0 (Windows NT 10.0; Win64; x64) AppleWebKit/537.36 (KHTML, like Gecko) Chrome/118.0.0.0 Safari/537.36" etag="mB4D-23FpbAV_G7O67r3" version="22.0.6" type="github">
  <diagram name="Page-1" id="5f0bae14-7c28-e335-631c-24af17079c00">
    <mxGraphModel dx="3313" dy="1717" grid="1" gridSize="10" guides="1" tooltips="1" connect="1" arrows="1" fold="1" page="1" pageScale="1" pageWidth="1100" pageHeight="850" background="none" math="0" shadow="0">
      <root>
        <mxCell id="0" />
        <mxCell id="1" parent="0" />
        <mxCell id="-H6l8ciazb51byIZADGl-40" style="edgeStyle=orthogonalEdgeStyle;rounded=0;orthogonalLoop=1;jettySize=auto;html=1;" edge="1" parent="1" source="avdBAuHFWkykyo0Ebd1_-23" target="-H6l8ciazb51byIZADGl-39">
          <mxGeometry relative="1" as="geometry" />
        </mxCell>
        <mxCell id="-H6l8ciazb51byIZADGl-44" style="edgeStyle=orthogonalEdgeStyle;rounded=0;orthogonalLoop=1;jettySize=auto;html=1;" edge="1" parent="1" source="avdBAuHFWkykyo0Ebd1_-23" target="-H6l8ciazb51byIZADGl-43">
          <mxGeometry relative="1" as="geometry" />
        </mxCell>
        <mxCell id="avdBAuHFWkykyo0Ebd1_-23" value="Api-gateway-server" style="shape=component;align=left;spacingLeft=36;rounded=0;shadow=0;comic=0;labelBackgroundColor=none;strokeWidth=1;fontFamily=Verdana;fontSize=12;html=1;" parent="1" vertex="1">
          <mxGeometry x="-245" y="-600" width="180" height="70" as="geometry" />
        </mxCell>
        <mxCell id="-H6l8ciazb51byIZADGl-34" style="edgeStyle=orthogonalEdgeStyle;rounded=0;orthogonalLoop=1;jettySize=auto;html=1;" edge="1" parent="1" source="avdBAuHFWkykyo0Ebd1_-24" target="-H6l8ciazb51byIZADGl-33">
          <mxGeometry relative="1" as="geometry">
            <Array as="points">
              <mxPoint x="570" y="-565" />
              <mxPoint x="570" y="-565" />
            </Array>
          </mxGeometry>
        </mxCell>
        <mxCell id="-H6l8ciazb51byIZADGl-36" style="edgeStyle=orthogonalEdgeStyle;rounded=0;orthogonalLoop=1;jettySize=auto;html=1;" edge="1" parent="1" source="avdBAuHFWkykyo0Ebd1_-24" target="-H6l8ciazb51byIZADGl-35">
          <mxGeometry relative="1" as="geometry" />
        </mxCell>
        <mxCell id="avdBAuHFWkykyo0Ebd1_-24" value="security-profile-service" style="shape=component;align=left;spacingLeft=36;rounded=0;shadow=0;comic=0;labelBackgroundColor=none;strokeWidth=1;fontFamily=Verdana;fontSize=12;html=1;" parent="1" vertex="1">
          <mxGeometry x="215" y="-600" width="180" height="70" as="geometry" />
        </mxCell>
        <mxCell id="-H6l8ciazb51byIZADGl-45" style="edgeStyle=orthogonalEdgeStyle;rounded=0;orthogonalLoop=1;jettySize=auto;html=1;" edge="1" parent="1" source="-H6l8ciazb51byIZADGl-20" target="-H6l8ciazb51byIZADGl-21">
          <mxGeometry relative="1" as="geometry" />
        </mxCell>
        <mxCell id="-H6l8ciazb51byIZADGl-20" value="Api-gateway-server" style="shape=component;align=left;spacingLeft=36;rounded=0;shadow=0;comic=0;labelBackgroundColor=none;strokeWidth=1;fontFamily=Verdana;fontSize=12;html=1;" vertex="1" parent="1">
          <mxGeometry x="-310" y="130" width="180" height="70" as="geometry" />
        </mxCell>
        <mxCell id="-H6l8ciazb51byIZADGl-26" style="edgeStyle=orthogonalEdgeStyle;rounded=0;orthogonalLoop=1;jettySize=auto;html=1;" edge="1" parent="1" source="-H6l8ciazb51byIZADGl-21" target="-H6l8ciazb51byIZADGl-25">
          <mxGeometry relative="1" as="geometry" />
        </mxCell>
        <mxCell id="-H6l8ciazb51byIZADGl-47" style="edgeStyle=orthogonalEdgeStyle;rounded=0;orthogonalLoop=1;jettySize=auto;html=1;" edge="1" parent="1" source="-H6l8ciazb51byIZADGl-21" target="-H6l8ciazb51byIZADGl-46">
          <mxGeometry relative="1" as="geometry" />
        </mxCell>
        <mxCell id="-H6l8ciazb51byIZADGl-49" style="edgeStyle=orthogonalEdgeStyle;rounded=0;orthogonalLoop=1;jettySize=auto;html=1;" edge="1" parent="1" source="-H6l8ciazb51byIZADGl-21" target="-H6l8ciazb51byIZADGl-48">
          <mxGeometry relative="1" as="geometry">
            <Array as="points">
              <mxPoint x="150" y="280" />
            </Array>
          </mxGeometry>
        </mxCell>
        <mxCell id="-H6l8ciazb51byIZADGl-52" style="edgeStyle=orthogonalEdgeStyle;rounded=0;orthogonalLoop=1;jettySize=auto;html=1;" edge="1" parent="1" source="-H6l8ciazb51byIZADGl-21" target="-H6l8ciazb51byIZADGl-50">
          <mxGeometry relative="1" as="geometry" />
        </mxCell>
        <mxCell id="-H6l8ciazb51byIZADGl-21" value="security-profile-service" style="shape=component;align=left;spacingLeft=36;rounded=0;shadow=0;comic=0;labelBackgroundColor=none;strokeWidth=1;fontFamily=Verdana;fontSize=12;html=1;" vertex="1" parent="1">
          <mxGeometry x="60" y="130" width="180" height="70" as="geometry" />
        </mxCell>
        <mxCell id="-H6l8ciazb51byIZADGl-25" value="&lt;br&gt;AS400" style="verticalAlign=top;align=left;spacingTop=8;spacingLeft=2;spacingRight=12;shape=cube;size=10;direction=south;fontStyle=4;html=1;rounded=0;shadow=0;comic=0;labelBackgroundColor=none;strokeWidth=1;fontFamily=Verdana;fontSize=12" vertex="1" parent="1">
          <mxGeometry x="450" y="130" width="170" height="70" as="geometry" />
        </mxCell>
        <mxCell id="-H6l8ciazb51byIZADGl-31" style="edgeStyle=orthogonalEdgeStyle;rounded=0;orthogonalLoop=1;jettySize=auto;html=1;entryX=-0.018;entryY=0.488;entryDx=0;entryDy=0;entryPerimeter=0;" edge="1" parent="1" source="avdBAuHFWkykyo0Ebd1_-23" target="avdBAuHFWkykyo0Ebd1_-24">
          <mxGeometry relative="1" as="geometry" />
        </mxCell>
        <mxCell id="-H6l8ciazb51byIZADGl-33" value="AS400" style="verticalAlign=top;align=left;spacingTop=8;spacingLeft=2;spacingRight=12;shape=cube;size=10;direction=south;fontStyle=4;html=1;rounded=0;shadow=0;comic=0;labelBackgroundColor=none;strokeWidth=1;fontFamily=Verdana;fontSize=12" vertex="1" parent="1">
          <mxGeometry x="620" y="-600" width="170" height="70" as="geometry" />
        </mxCell>
        <mxCell id="-H6l8ciazb51byIZADGl-35" value="&lt;br&gt;notificactions-service" style="verticalAlign=top;align=left;spacingTop=8;spacingLeft=2;spacingRight=12;shape=cube;size=10;direction=south;fontStyle=4;html=1;rounded=0;shadow=0;comic=0;labelBackgroundColor=none;strokeWidth=1;fontFamily=Verdana;fontSize=12" vertex="1" parent="1">
          <mxGeometry x="220" y="-800" width="170" height="70" as="geometry" />
        </mxCell>
        <mxCell id="-H6l8ciazb51byIZADGl-42" style="edgeStyle=orthogonalEdgeStyle;rounded=0;orthogonalLoop=1;jettySize=auto;html=1;" edge="1" parent="1" source="-H6l8ciazb51byIZADGl-39" target="-H6l8ciazb51byIZADGl-41">
          <mxGeometry relative="1" as="geometry" />
        </mxCell>
        <mxCell id="-H6l8ciazb51byIZADGl-39" value="Agreement-service" style="shape=component;align=left;spacingLeft=36;rounded=0;shadow=0;comic=0;labelBackgroundColor=none;strokeWidth=1;fontFamily=Verdana;fontSize=12;html=1;" vertex="1" parent="1">
          <mxGeometry x="-245" y="-360" width="180" height="70" as="geometry" />
        </mxCell>
        <mxCell id="-H6l8ciazb51byIZADGl-41" value="&lt;br&gt;AS-400" style="verticalAlign=top;align=left;spacingTop=8;spacingLeft=2;spacingRight=12;shape=cube;size=10;direction=south;fontStyle=4;html=1;rounded=0;shadow=0;comic=0;labelBackgroundColor=none;strokeWidth=1;fontFamily=Verdana;fontSize=12" vertex="1" parent="1">
          <mxGeometry x="90" y="-360" width="170" height="70" as="geometry" />
        </mxCell>
        <mxCell id="-H6l8ciazb51byIZADGl-43" value="app-customization-&lt;br&gt;service" style="shape=component;align=left;spacingLeft=36;rounded=0;shadow=0;comic=0;labelBackgroundColor=none;strokeWidth=1;fontFamily=Verdana;fontSize=12;html=1;" vertex="1" parent="1">
          <mxGeometry x="-245" y="-840" width="180" height="70" as="geometry" />
        </mxCell>
        <mxCell id="-H6l8ciazb51byIZADGl-46" value="&lt;br&gt;notification-server" style="verticalAlign=top;align=left;spacingTop=8;spacingLeft=2;spacingRight=12;shape=cube;size=10;direction=south;fontStyle=4;html=1;rounded=0;shadow=0;comic=0;labelBackgroundColor=none;strokeWidth=1;fontFamily=Verdana;fontSize=12" vertex="1" parent="1">
          <mxGeometry x="65" y="-70" width="170" height="70" as="geometry" />
        </mxCell>
        <mxCell id="-H6l8ciazb51byIZADGl-48" value="&lt;br&gt;agreement-service&amp;nbsp;" style="verticalAlign=top;align=left;spacingTop=8;spacingLeft=2;spacingRight=12;shape=cube;size=10;direction=south;fontStyle=4;html=1;rounded=0;shadow=0;comic=0;labelBackgroundColor=none;strokeWidth=1;fontFamily=Verdana;fontSize=12" vertex="1" parent="1">
          <mxGeometry x="450" y="250" width="170" height="70" as="geometry" />
        </mxCell>
        <mxCell id="-H6l8ciazb51byIZADGl-50" value="&lt;br&gt;app-customization-service" style="verticalAlign=top;align=left;spacingTop=8;spacingLeft=2;spacingRight=12;shape=cube;size=10;direction=south;fontStyle=4;html=1;rounded=0;shadow=0;comic=0;labelBackgroundColor=none;strokeWidth=1;fontFamily=Verdana;fontSize=12" vertex="1" parent="1">
          <mxGeometry x="57.5" y="400" width="185" height="70" as="geometry" />
        </mxCell>
      </root>
    </mxGraphModel>
  </diagram>
</mxfile>
